<?xml version="1.0" encoding="UTF-8"?>
<!DOCTYPE svg PUBLIC "-//W3C//DTD SVG 1.1//EN" "http://www.w3.org/Graphics/SVG/1.1/DTD/svg11.dtd">
<!-- Creator: CorelDRAW -->
<svg xmlns="http://www.w3.org/2000/svg" xml:space="preserve" width="8.5in" height="11in" version="1.1" style="shape-rendering:geometricPrecision; text-rendering:geometricPrecision; image-rendering:optimizeQuality; fill-rule:evenodd; clip-rule:evenodd"
viewBox="0 0 8500 11000"
 xmlns:xlink="http://www.w3.org/1999/xlink">
 <defs>
  <style type="text/css">
   <![CDATA[
    .str1 {stroke:#7FBADF;stroke-width:0.622047}
    .str4 {stroke:#9A9695;stroke-width:0.622047}
    .str3 {stroke:#C4BDB2;stroke-width:0.622047}
    .str0 {stroke:#E0EA9D;stroke-width:0.622047}
    .str2 {stroke:#F68F93;stroke-width:0.622047}
    .fil0 {fill:none}
    .fil2 {fill:#0076BF}
    .fil6 {fill:#352D2C}
    .fil4 {fill:#8A7B66}
    .fil1 {fill:#C1D63C}
    .fil3 {fill:#EC2028}
    .fil5 {fill:white}
   ]]>
  </style>
 </defs>
 <g id="Layer_x0020_1">
  <metadata id="CorelCorpID_0Corel-Layer"/>
  <g id="Universitas_x0020_Pertamina.cdr">
   <path class="fil0 str0" d="M8452 3933c-45,-30 -92,-64 -143,-82 -130,-45 -257,-44 -383,6 -64,25 -121,63 -170,113 -41,42 -85,105 -107,160 -2,3 -1,3 2,2 8,-5 17,-12 28,-20 27,-21 58,-41 94,-60 133,-72 278,-113 433,-123 2,0 3,1 3,2l0 2c0,3 -1,4 -4,4 -196,25 -367,103 -513,234 -2,1 -1,3 0,3 44,24 92,49 138,63 213,61 446,-20 570,-204 21,-30 38,-59 52,-87"/>
   <path class="fil0 str0" d="M5819 2341c-4,-9 -2,-10 4,-3 6,6 12,13 17,23 111,224 162,483 130,733 -1,7 -1,14 -1,19 0,5 1,6 5,1 28,-41 56,-84 76,-129 121,-276 49,-613 -186,-806 -58,-48 -122,-87 -191,-114 -4,-2 -9,-2 -13,-2 -2,0 -4,1 -5,2 -18,21 -34,45 -48,71 -64,118 -103,256 -92,388 12,135 54,267 139,375 51,64 109,119 176,165 20,14 43,26 68,36 2,0 2,0 2,-2 -3,-20 9,-49 11,-70 7,-73 11,-128 12,-164 3,-184 -31,-359 -104,-523"/>
   <path class="fil0 str1" d="M6644 2329c2,0 2,1 2,3 -12,31 -27,65 -36,94 -43,127 -71,265 -71,399 -1,73 5,147 16,220 3,17 7,33 12,49 2,4 5,5 9,3 85,-45 163,-115 222,-185 87,-103 146,-257 147,-392 1,-96 -2,-171 -33,-257 -23,-67 -54,-135 -99,-190 -6,-9 -14,-11 -22,-8 -83,28 -148,82 -218,143 -29,26 -52,50 -69,70 -113,139 -170,337 -147,509 16,112 54,214 116,306 6,9 13,16 22,21 3,2 4,2 3,-2 -6,-15 -9,-30 -10,-47 -22,-255 32,-506 150,-733 1,-2 2,-2 3,-2l3 -1"/>
   <path class="fil0 str1" d="M5096 2709c0,0 1,0 1,0 73,58 128,125 183,202 80,112 135,236 166,372 1,3 2,6 4,8 1,1 4,1 4,-1 7,-20 12,-40 15,-60 20,-135 3,-274 -67,-393 -105,-179 -304,-306 -517,-300 -3,0 -5,2 -5,4 -8,39 -18,80 -21,117 -29,294 169,574 464,634 20,4 40,8 61,13 1,0 3,-1 2,-2 -23,-182 -99,-348 -208,-495 -27,-36 -55,-67 -84,-94 -1,-1 -1,-3 0,-4l2 -1"/>
   <path class="fil0 str0" d="M7361 2714c-32,39 -57,71 -77,96 -108,142 -181,309 -208,489 -1,4 1,5 4,5 24,-5 49,-10 75,-16 66,-15 127,-41 182,-78 188,-127 295,-341 264,-568 -4,-34 -11,-68 -20,-101 0,-2 -2,-4 -4,-4 -198,-10 -400,114 -503,278 -83,135 -112,312 -71,464 1,4 3,7 7,10 3,2 7,0 8,-3 42,-212 161,-401 315,-552 9,-8 18,-16 26,-22 5,-3 5,-3 2,2"/>
   <path class="fil0 str0" d="M4544 3256c1,0 1,0 2,0 133,55 256,133 360,234 58,56 96,110 141,169 4,4 6,7 8,8 5,4 7,3 6,-3 -7,-37 -13,-70 -19,-99 -5,-24 -18,-59 -40,-105 -21,-46 -48,-87 -82,-125 -98,-109 -221,-172 -366,-190 -31,-4 -75,-6 -102,-2 -37,5 -88,21 -142,29 -3,1 -5,3 -5,6 3,199 128,383 302,473 123,63 253,80 389,51 3,-1 5,-4 3,-7 -32,-67 -82,-129 -131,-185 -61,-72 -131,-132 -211,-183 -37,-23 -75,-46 -112,-69 -1,-1 -1,-1 -1,-2l0 0"/>
   <path class="fil0 str1" d="M7909 3260c7,-1 8,0 1,4 -174,92 -317,216 -423,389 -9,16 -17,31 -24,48 0,1 1,2 2,2 27,2 54,5 82,7 66,5 130,1 194,-15 203,-49 373,-230 408,-437 4,-27 8,-53 11,-79 0,-2 -1,-4 -4,-5 -82,-22 -165,-41 -251,-29 -258,36 -440,209 -494,462 -4,21 -6,40 -6,58 0,5 1,6 4,2 125,-183 288,-318 489,-403 5,-3 9,-4 11,-4"/>
   <path class="fil0 str1" d="M4256 3932c-1,-1 -1,-3 1,-3 200,17 389,77 548,201 2,2 3,1 4,-1 1,-5 0,-10 -3,-15 -75,-149 -192,-243 -351,-282 -154,-38 -320,4 -444,101 -2,1 -2,2 -1,4 41,109 139,212 242,264 95,48 204,64 309,49 76,-10 145,-32 206,-76 3,-1 3,-4 1,-6 -14,-16 -30,-29 -46,-41 -102,-74 -215,-135 -336,-162 -37,-9 -74,-19 -111,-26 -7,-1 -13,-3 -19,-7"/>
   <path class="fil0 str2" d="M6226 4914c-6,-7 -10,-20 -15,-28 -118,-192 -267,-389 -412,-544 -164,-174 -345,-332 -540,-470 -1,-1 -3,-1 -4,0 -2,1 -3,3 -1,5 89,146 176,288 258,445 227,431 405,880 533,1346 9,34 18,70 27,107 37,148 69,298 97,449 9,50 19,101 27,151 4,21 7,44 11,68 5,41 12,81 14,122 1,19 2,37 3,55 1,3 2,6 4,8 2,2 6,1 7,-3 10,-50 13,-102 20,-153 42,-308 107,-611 193,-910 97,-332 222,-654 368,-968 116,-248 247,-489 396,-719 7,-11 5,-13 -5,-5 -143,101 -279,212 -407,333 -39,37 -103,105 -193,204 -141,155 -259,330 -372,506 -3,4 -6,4 -9,1"/>
   <path class="fil0 str2" d="M6527 4214c0,-173 -140,-314 -314,-314 -173,0 -313,141 -313,314 0,173 140,314 313,314 174,0 314,-141 314,-314"/>
   <path class="fil0 str0" d="M4255 4602c0,-2 1,-4 3,-5 117,-33 235,-46 354,-39 70,4 142,24 209,43 3,0 6,-2 4,-5 -4,-10 -9,-18 -16,-23 -100,-79 -200,-130 -330,-134 -86,-2 -164,14 -235,48 -82,39 -150,99 -204,179 -9,13 -8,25 3,35 109,110 268,168 420,147 133,-19 266,-88 341,-199 1,-1 1,-2 -1,-3 -97,-37 -197,-59 -300,-64 -83,-4 -164,8 -245,23 -1,0 -2,0 -2,-2l-1 -1"/>
   <path class="fil0 str1" d="M8217 4605c-1,1 -1,1 -2,1 -65,-14 -132,-22 -199,-25 -64,-2 -112,5 -168,15 -63,10 -126,29 -186,50 -2,1 -3,4 -2,6 2,6 6,12 11,17 205,235 548,247 762,16 1,-2 2,-3 0,-5 -173,-268 -534,-327 -776,-107 -8,7 -15,16 -21,25 -2,2 -1,3 2,2 36,-10 73,-19 110,-27 39,-8 76,-14 109,-15 96,-6 190,3 284,26 24,6 49,12 74,17 1,0 2,2 2,3l0 1"/>
   <path class="fil0 str1" d="M4602 5292c-1,0 -2,-1 -1,-2 26,-38 52,-76 82,-109 44,-49 84,-87 119,-115 66,-52 129,-83 197,-121 5,-3 9,-6 11,-9 2,-4 1,-7 -4,-7 -120,0 -224,21 -323,95 -110,81 -176,190 -196,327 -5,38 -10,89 0,129 5,24 53,23 71,21 67,-7 139,-20 199,-48 88,-41 157,-104 209,-189 54,-88 70,-176 66,-274 0,-3 -2,-4 -5,-3 -166,58 -303,158 -412,297 -3,5 -8,8 -13,8"/>
   <path class="fil0 str0" d="M7876 5237c0,0 0,0 0,0 -22,-12 -44,-24 -66,-36 -136,-75 -287,-108 -444,-101 0,0 -1,1 -1,1 43,152 189,290 342,324 82,18 147,23 227,1 38,-10 74,-22 110,-38 8,-3 11,-10 9,-19 -50,-191 -189,-330 -383,-369 -95,-19 -195,-5 -283,31 -8,3 -15,7 -23,12 -2,2 -2,3 1,4 28,3 55,6 82,10 153,18 311,81 430,177 0,0 0,1 0,2l-1 1"/>
   <path class="fil0 str3" d="M1802 5657c-1,-28 -26,-50 -56,-49 -31,1 -55,24 -54,51 0,28 26,50 56,49 30,0 54,-23 54,-51"/>
   <path class="fil0 str3" d="M3825 5659c0,-27 -24,-50 -55,-51 -30,0 -56,21 -56,49 -1,28 24,51 54,51 31,1 56,-21 57,-49"/>
   <path class="fil0 str3" d="M3967 5901c0,112 -6,224 -2,336 1,58 24,107 89,110 56,2 103,-19 136,-64 2,-3 2,-8 -2,-11l-15 -11c-2,-2 -6,-2 -8,0 -24,19 -55,41 -84,13 -11,-12 -17,-28 -17,-48 -1,-109 -1,-218 0,-326 0,-1 0,-2 1,-2l103 1c2,0 4,-1 4,-3l1 -36c0,-3 -1,-4 -4,-4l-103 1c-1,0 -2,-1 -2,-3l0 -160c0,-3 -1,-4 -3,-4l-20 -4c-2,0 -3,1 -4,3 -12,44 -20,95 -47,132 -26,36 -59,45 -102,53 -6,1 -9,5 -9,11l0 5c0,6 4,9 10,9l75 -1c2,0 3,1 3,3"/>
   <path class="fil0 str3" d="M1011 6107c1,97 -51,185 -153,199 -43,7 -93,4 -132,-17 -42,-22 -73,-61 -89,-106 -10,-28 -11,-66 -11,-96 2,-123 2,-247 1,-370 0,-2 -1,-3 -2,-3l-101 -1c-2,0 -4,2 -5,5 0,14 -1,29 -1,44 -1,122 -3,245 2,366 5,118 87,200 200,219 117,20 258,-6 316,-120 24,-48 27,-109 26,-163 -3,-116 3,-231 -1,-346 0,-3 -2,-4 -4,-4l-43 -1c-2,0 -3,1 -3,3 0,130 0,260 0,391"/>
   <path class="fil0 str3" d="M3011 5939l2 -79c0,-2 -2,-4 -5,-4l-92 0c-1,0 -2,1 -2,2l0 475c0,2 2,5 5,5l89 1c3,0 4,-2 4,-4 0,-107 0,-212 0,-316 0,-26 31,-61 49,-78 23,-21 51,-4 76,7 16,7 49,6 65,-4 22,-13 29,-41 15,-64 -19,-36 -71,-42 -103,-30 -36,14 -74,57 -100,90 -1,2 -3,1 -3,-1"/>
   <path class="fil0 str3" d="M3493 5852c-83,-27 -199,11 -222,102 -15,63 28,124 82,153 30,15 60,31 91,45 45,22 114,67 70,125 -25,35 -76,42 -115,31 -41,-12 -71,-51 -98,-84 -1,-2 -5,-2 -7,0l-33 31c-2,3 -2,6 0,8 68,81 154,102 255,75 50,-14 98,-57 105,-111 3,-25 3,-56 -10,-78 -36,-63 -113,-89 -179,-117 -41,-17 -122,-64 -78,-121 8,-11 18,-19 28,-22 63,-21 115,-6 156,43 9,11 18,22 25,31 2,2 4,3 7,1l30 -25c2,-2 3,-5 1,-7 -28,-39 -64,-66 -108,-80"/>
   <path class="fil0 str3" d="M3817 6335l2 -486c0,-4 -2,-5 -6,-5 -28,0 -68,15 -91,30 -1,1 -1,2 -1,4l0 454c0,4 2,7 7,7l86 -1c2,0 3,-1 3,-3"/>
   <path class="fil0 str3" d="M4905 6311c-65,12 -122,-32 -154,-85 -2,-4 -7,-5 -10,-2l-30 29c-4,4 -5,9 -1,13 32,41 73,66 123,76 83,18 196,-3 231,-93 29,-77 -27,-146 -94,-176 -35,-16 -71,-33 -106,-49 -38,-17 -85,-46 -71,-95 7,-28 30,-41 57,-46 63,-12 126,20 154,73 4,8 10,10 17,4l21 -15c8,-5 8,-11 2,-18 -36,-41 -73,-74 -125,-81 -54,-8 -113,2 -156,38 -82,68 -50,177 35,222 49,26 106,46 148,81 55,45 21,114 -41,124"/>
   <path class="fil0 str3" d="M1279 5937l-1 -79c0,-1 -1,-2 -3,-2l-89 0c-3,0 -5,2 -5,5l-1 472c0,4 2,6 6,6l90 0c1,0 2,-2 2,-3l0 -349c0,-4 2,-8 5,-10 45,-38 88,-73 154,-60 30,5 49,40 50,68 6,116 3,235 2,351 0,1 1,2 3,2l93 1c2,0 3,-2 3,-4 -1,-107 -1,-215 -1,-322 1,-62 -14,-125 -73,-155 -81,-42 -177,22 -232,80 -1,1 -3,1 -3,-1"/>
   <path class="fil0 str3" d="M1698 5878l0 458c0,1 0,2 2,2l94 1c2,0 3,-2 3,-3l0 -488c0,-2 -1,-3 -3,-3 -30,-4 -68,14 -94,29 -2,1 -2,2 -2,4"/>
   <path class="fil0 str3" d="M2452 6055c0,-3 2,-5 4,-5l357 -1c1,0 2,0 2,-2 -6,-109 -76,-183 -181,-200 -192,-30 -318,174 -260,342 26,74 84,132 159,151 37,10 74,10 111,2 74,-17 130,-67 168,-132 8,-14 13,-27 14,-41 1,-2 0,-3 -2,-4 -8,-5 -17,-6 -27,-5 -2,0 -3,1 -4,3 -28,70 -103,113 -177,109 -61,-3 -112,-47 -138,-101 -16,-33 -22,-77 -26,-116"/>
   <path class="fil0 str3" d="M4506 6276c0,1 1,1 1,1l-1 55c0,4 3,6 6,6l86 0c3,0 5,-2 5,-5 4,-118 4,-235 0,-350 -2,-38 0,-57 -18,-81 -54,-72 -178,-66 -252,-41 -52,17 -119,65 -88,128 12,27 50,35 73,18 9,-6 13,-14 14,-23 3,-29 4,-83 37,-96 31,-13 73,-12 100,8 37,27 38,82 38,123 0,5 -4,8 -8,9 -64,10 -124,31 -181,62 -53,28 -110,85 -101,151 8,54 46,100 102,105 42,4 89,-2 126,-27 19,-14 38,-28 56,-43 3,-2 4,-2 5,0"/>
   <path class="fil0 str3" d="M2128 6215c-1,0 -2,0 -2,-1l-163 -351c-2,-4 -6,-7 -10,-7l-94 0c-3,0 -4,1 -3,4 23,48 48,97 69,145 41,90 82,179 125,268 8,17 30,70 49,73 16,2 26,-18 32,-30 68,-152 136,-304 204,-457 1,-2 0,-3 -3,-3l-41 0c-2,0 -4,2 -5,4 -13,35 -28,70 -44,105 -37,83 -74,166 -112,249 -1,0 -1,1 -2,1"/>
   <path class="fil0 str4" d="M3318 6921l0 -298c0,-1 -1,-2 -2,-2l-48 0c-2,0 -4,1 -4,3 -30,133 -49,269 -197,322 -10,4 -35,7 -76,9 -4,0 -7,3 -7,7l0 31c0,5 3,7 7,7l145 0c1,0 2,1 2,3 2,198 2,396 0,594 -1,93 18,207 124,227 114,22 230,-16 292,-124 1,-1 0,-4 -2,-5l-38 -23c-5,-2 -10,-1 -13,2 -30,32 -67,52 -111,42 -29,-6 -50,-22 -62,-48 -6,-11 -9,-27 -10,-48 -1,-31 -1,-62 -1,-94 0,-173 1,-346 1,-520 0,-3 2,-5 5,-5l191 0c2,0 4,-2 4,-4l-1 -71c0,-1 -1,-2 -3,-2l-193 0c-2,0 -3,-1 -3,-3"/>
   <path class="fil0 str4" d="M693 7281c90,13 156,20 197,20 133,2 278,-35 355,-153 64,-97 64,-215 3,-312 -70,-110 -199,-163 -325,-170 -142,-7 -284,-3 -425,-4 -3,0 -4,2 -4,4l-1 1144c0,2 2,4 5,4l187 1c3,0 4,-2 4,-5l0 -526c0,-2 2,-3 4,-3"/>
   <path class="fil0 str4" d="M2153 7480c-2,1 -3,1 -3,3 -7,13 -14,26 -21,40 -50,91 -147,150 -247,170 -14,3 -36,3 -67,2 -25,-1 -47,-5 -65,-11 -61,-20 -109,-55 -146,-105 -66,-89 -87,-189 -89,-295 0,-3 1,-4 4,-4l655 0c4,0 6,-2 5,-5 -6,-108 -52,-212 -137,-279 -105,-82 -241,-112 -370,-77 -194,52 -299,211 -324,404 -26,200 67,392 256,473 116,50 264,44 374,-19 101,-57 172,-140 215,-248 4,-10 11,-28 -2,-34 -12,-5 -24,-10 -35,-15 -1,-1 -1,-1 -2,0 0,0 -1,0 -1,0"/>
   <path class="fil0 str4" d="M4169 7694c1,-1 2,0 2,1l-2 115c0,1 1,2 3,2l174 2c2,0 2,-1 2,-2 2,-231 3,-461 0,-690 -3,-196 -233,-236 -384,-212 -98,16 -192,39 -259,119 -35,42 -46,105 -13,151 20,29 47,41 83,39 65,-5 80,-61 82,-116 1,-28 2,-44 3,-48 17,-80 114,-101 183,-84 127,30 129,155 127,261 0,2 -1,3 -2,3 -50,19 -105,32 -157,46 -132,36 -325,117 -364,266 -20,76 -2,162 51,219 59,65 159,73 244,57 93,-16 155,-77 227,-129"/>
   <path class="fil0 str4" d="M4732 7085c-4,3 -5,2 -5,-3l1 -156c0,-1 -1,-2 -3,-2l-176 -1c0,0 -1,1 -1,2l0 885c0,2 2,4 5,4l171 0c2,0 4,-1 4,-3 -1,-218 -1,-434 0,-649 0,-7 1,-14 7,-19 47,-46 100,-84 164,-102 23,-7 50,-14 71,-13 73,5 124,41 153,106 4,9 6,16 7,22 6,34 8,67 8,105 0,183 0,367 0,550 0,2 2,3 4,3l171 1c2,0 3,-2 3,-3 0,-216 0,-432 0,-647 0,-9 4,-17 12,-26 35,-38 74,-67 118,-86 68,-29 143,-38 205,4 59,40 75,112 75,181 0,191 0,381 0,571 0,3 2,5 5,5l168 0c3,0 4,-1 4,-3 -2,-181 -1,-361 3,-540 2,-57 -2,-109 -11,-156 -25,-133 -135,-218 -270,-209 -16,1 -32,6 -48,9 -97,20 -202,86 -258,168 -7,9 -11,8 -13,-3 -4,-29 -17,-55 -39,-80 -61,-67 -155,-109 -246,-90 -97,21 -184,78 -254,139 -11,10 -23,25 -35,36"/>
   <path class="fil0 str4" d="M6189 6926c-13,6 -27,13 -41,19 -9,4 -22,6 -32,10 -2,1 -3,2 -3,4l0 852c0,2 1,3 3,3l174 0c1,0 2,0 2,-1l0 -905c0,-2 -2,-3 -4,-3 -35,-1 -67,6 -99,21"/>
   <path class="fil0 str4" d="M7893 7694c1,-1 2,0 2,1l-1 113c0,3 3,5 6,5l170 2c2,0 3,-1 3,-3 1,-225 3,-449 -2,-673 -1,-34 -4,-59 -8,-75 -22,-80 -91,-127 -170,-144 -42,-9 -88,-16 -130,-16 -63,1 -125,11 -185,30 -81,26 -198,98 -180,201 9,47 42,85 92,84 151,-2 33,-194 160,-240 93,-33 220,-3 235,114 6,45 9,92 9,140 0,3 -2,5 -4,6 -75,17 -149,38 -223,64 -68,24 -132,57 -191,99 -92,66 -137,177 -100,285 21,60 74,120 137,134 70,15 161,13 227,-20 55,-27 102,-66 149,-105 1,-1 3,-2 4,-2"/>
   <path class="fil0 str4" d="M2508 7082l2 -155c1,-2 -1,-3 -2,-3l-174 0c-2,0 -3,1 -3,3l0 884c0,1 1,2 1,2l173 1c3,0 5,-2 5,-5 -4,-190 -1,-381 -3,-571 0,-31 3,-46 20,-69 36,-51 87,-129 159,-100 38,15 75,34 117,34 44,-1 82,-21 95,-64 5,-17 4,-34 -2,-52 -22,-56 -84,-84 -142,-81 -19,1 -41,9 -61,14 -12,3 -31,13 -55,30 -46,33 -89,86 -126,133 -3,3 -4,3 -4,-1"/>
   <path class="fil0 str4" d="M6686 7081c-2,3 -4,2 -4,-2l2 -152c0,-2 -1,-3 -3,-3l-172 0c-2,0 -4,2 -4,4l0 880c0,2 2,4 5,4l171 2c1,0 2,-1 2,-2 0,-214 -1,-428 0,-641 0,-14 2,-20 12,-28 44,-40 92,-71 144,-94 22,-10 55,-20 78,-21 71,-4 135,39 147,112 6,34 9,62 9,84 0,194 0,390 0,586 0,2 2,4 4,4l170 0c2,0 4,-1 4,-4 -1,-157 -2,-316 1,-473 1,-65 1,-109 0,-133 -4,-70 -9,-135 -50,-195 -137,-204 -398,-66 -516,72"/>
   <path class="fil0 str3" d="M2457 6009l233 1c0,0 1,0 1,-1l0 -1c0,-68 -52,-124 -117,-124l0 0c-65,0 -118,55 -118,123l0 1c0,1 0,1 1,1"/>
   <path class="fil0 str3" d="M4499 6059c-59,23 -185,69 -183,148 1,42 39,80 80,80 35,0 77,-25 106,-47 2,-2 3,-5 3,-8l1 -169c0,-5 -3,-6 -7,-4"/>
   <path class="fil0 str4" d="M830 7239c134,7 245,-78 252,-215 5,-117 -46,-208 -152,-255 -19,-8 -37,-14 -55,-16 -58,-6 -119,-8 -182,-6 -2,0 -3,2 -3,4l-1 463c0,1 1,2 2,2 46,13 92,20 139,23"/>
   <path class="fil0 str4" d="M1811 6991c-41,-18 -106,-21 -145,-5 -90,38 -140,124 -150,218 0,2 1,4 3,4l433 0c2,0 4,-2 4,-5 -3,-11 -5,-22 -6,-33 -14,-85 -60,-145 -139,-179"/>
   <path class="fil0 str4" d="M3824 7522c-28,77 23,171 100,194 86,25 174,-35 240,-86 3,-3 5,-7 5,-11l1 -321c0,-1 -1,-1 -2,-1 -68,21 -134,49 -197,84 -54,30 -125,80 -147,141"/>
   <path class="fil0 str4" d="M7684 7387c-50,31 -128,89 -139,153 -8,40 3,89 28,123 37,49 93,66 153,55 60,-12 119,-51 165,-90 2,-2 3,-4 3,-7l0 -323c0,-1 -1,-2 -2,-2 -73,25 -136,48 -208,91"/>
   <path class="fil1" d="M5819 2341c73,164 107,339 104,523 -1,36 -5,91 -12,164 -2,21 -14,50 -11,70 0,2 0,2 -2,2 -25,-10 -48,-22 -68,-36 -67,-46 -125,-101 -176,-165 -85,-108 -127,-240 -139,-375 -11,-132 28,-270 92,-388 14,-26 30,-50 48,-71 1,-1 3,-2 5,-2 4,0 9,0 13,2 69,27 133,66 191,114 235,193 307,530 186,806 -20,45 -48,88 -76,129 -4,5 -5,4 -5,-1 0,-5 0,-12 1,-19 32,-250 -19,-509 -130,-733 -5,-10 -11,-17 -17,-23 -6,-7 -8,-6 -4,3z"/>
   <path class="fil2" d="M6644 2329l-3 1c-1,0 -2,0 -3,2 -118,227 -172,478 -150,733 1,17 4,32 10,47 1,4 0,4 -3,2 -9,-5 -16,-12 -22,-21 -62,-92 -100,-194 -116,-306 -23,-172 34,-370 147,-509 17,-20 40,-44 69,-70 70,-61 135,-115 218,-143 8,-3 16,-1 22,8 45,55 76,123 99,190 31,86 34,161 33,257 -1,135 -60,289 -147,392 -59,70 -137,140 -222,185 -4,2 -7,1 -9,-3 -5,-16 -9,-32 -12,-49 -11,-73 -17,-147 -16,-220 0,-134 28,-272 71,-399 9,-29 24,-63 36,-94 0,-2 0,-3 -2,-3z"/>
   <path class="fil2" d="M5096 2709l-2 1c-1,1 -1,3 0,4 29,27 57,58 84,94 109,147 185,313 208,495 1,1 -1,2 -2,2 -21,-5 -41,-9 -61,-13 -295,-60 -493,-340 -464,-634 3,-37 13,-78 21,-117 0,-2 2,-4 5,-4 213,-6 412,121 517,300 70,119 87,258 67,393 -3,20 -8,40 -15,60 0,2 -3,2 -4,1 -2,-2 -3,-5 -4,-8 -31,-136 -86,-260 -166,-372 -55,-77 -110,-144 -183,-202 0,0 -1,0 -1,0z"/>
   <path class="fil1" d="M7359 2712c-8,6 -17,14 -26,22 -154,151 -273,340 -315,552 -1,3 -5,5 -8,3 -4,-3 -6,-6 -7,-10 -41,-152 -12,-329 71,-464 103,-164 305,-288 503,-278 2,0 4,2 4,4 9,33 16,67 20,101 31,227 -76,441 -264,568 -55,37 -116,63 -182,78 -26,6 -51,11 -75,16 -3,0 -5,-1 -4,-5 27,-180 100,-347 208,-489 20,-25 45,-57 77,-96 3,-5 3,-5 -2,-2z"/>
   <path class="fil1" d="M4545 3258c37,23 75,46 112,69 80,51 150,111 211,183 49,56 99,118 131,185 2,3 0,6 -3,7 -136,29 -266,12 -389,-51 -174,-90 -299,-274 -302,-473 0,-3 2,-5 5,-6 54,-8 105,-24 142,-29 27,-4 71,-2 102,2 145,18 268,81 366,190 34,38 61,79 82,125 22,46 35,81 40,105 6,29 12,62 19,99 1,6 -1,7 -6,3 -2,-1 -4,-4 -8,-8 -45,-59 -83,-113 -141,-169 -104,-101 -227,-179 -360,-234 -1,0 -1,0 -2,0l0 0c0,1 0,1 1,2z"/>
   <path class="fil2" d="M7909 3260c-2,0 -6,1 -11,4 -201,85 -364,220 -489,403 -3,4 -4,3 -4,-2 0,-18 2,-37 6,-58 54,-253 236,-426 494,-462 86,-12 169,7 251,29 3,1 4,3 4,5 -3,26 -7,52 -11,79 -35,207 -205,388 -408,437 -64,16 -128,20 -194,15 -28,-2 -55,-5 -82,-7 -1,0 -2,-1 -2,-2 7,-17 15,-32 24,-48 106,-173 249,-297 423,-389 7,-4 6,-5 -1,-4z"/>
   <path class="fil2" d="M4256 3932c6,4 12,6 19,7 37,7 74,17 111,26 121,27 234,88 336,162 16,12 32,25 46,41 2,2 2,5 -1,6 -61,44 -130,66 -206,76 -105,15 -214,-1 -309,-49 -103,-52 -201,-155 -242,-264 -1,-2 -1,-3 1,-4 124,-97 290,-139 444,-101 159,39 276,133 351,282 3,5 4,10 3,15 -1,2 -2,3 -4,1 -159,-124 -348,-184 -548,-201 -2,0 -2,2 -1,3z"/>
   <path class="fil1" d="M8452 3933l0 13c-14,28 -31,57 -52,87 -124,184 -357,265 -570,204 -46,-14 -94,-39 -138,-63 -1,0 -2,-2 0,-3 146,-131 317,-209 513,-234 3,0 4,-1 4,-4l0 -2c0,-1 -1,-2 -3,-2 -155,10 -300,51 -433,123 -36,19 -67,39 -94,60 -11,8 -20,15 -28,20 -3,1 -4,1 -2,-2 22,-55 66,-118 107,-160 49,-50 106,-88 170,-113 126,-50 253,-51 383,-6 51,18 98,52 143,82z"/>
   <path class="fil3" d="M6226 4914c3,3 6,3 9,-1 113,-176 231,-351 372,-506 90,-99 154,-167 193,-204 128,-121 264,-232 407,-333 10,-8 12,-6 5,5 -149,230 -280,471 -396,719 -146,314 -271,636 -368,968 -86,299 -151,602 -193,910 -7,51 -10,103 -20,153 -1,4 -5,5 -7,3 -2,-2 -3,-5 -4,-8 -1,-18 -2,-36 -3,-55 -2,-41 -9,-81 -14,-122 -4,-24 -7,-47 -11,-68 -8,-50 -18,-101 -27,-151 -28,-151 -60,-301 -97,-449 -9,-37 -18,-73 -27,-107 -128,-466 -306,-915 -533,-1346 -82,-157 -169,-299 -258,-445 -2,-2 -1,-4 1,-5 1,-1 3,-1 4,0 195,138 376,296 540,470 145,155 294,352 412,544 5,8 9,21 15,28z"/>
   <path class="fil3" d="M6527 4214c0,173 -140,314 -314,314 -173,0 -313,-141 -313,-314 0,-173 140,-314 313,-314 174,0 314,141 314,314z"/>
   <path class="fil1" d="M4255 4602l1 1c0,2 1,2 2,2 81,-15 162,-27 245,-23 103,5 203,27 300,64 2,1 2,2 1,3 -75,111 -208,180 -341,199 -152,21 -311,-37 -420,-147 -11,-10 -12,-22 -3,-35 54,-80 122,-140 204,-179 71,-34 149,-50 235,-48 130,4 230,55 330,134 7,5 12,13 16,23 2,3 -1,5 -4,5 -67,-19 -139,-39 -209,-43 -119,-7 -237,6 -354,39 -2,1 -3,3 -3,5z"/>
   <path class="fil2" d="M8217 4605l0 -1c0,-1 -1,-3 -2,-3 -25,-5 -50,-11 -74,-17 -94,-23 -188,-32 -284,-26 -33,1 -70,7 -109,15 -37,8 -74,17 -110,27 -3,1 -4,0 -2,-2 6,-9 13,-18 21,-25 242,-220 603,-161 776,107 2,2 1,3 0,5 -214,231 -557,219 -762,-16 -5,-5 -9,-11 -11,-17 -1,-2 0,-5 2,-6 60,-21 123,-40 186,-50 56,-10 104,-17 168,-15 67,3 134,11 199,25 1,0 1,0 2,-1z"/>
   <path class="fil2" d="M4602 5292c5,0 10,-3 13,-8 109,-139 246,-239 412,-297 3,-1 5,0 5,3 4,98 -12,186 -66,274 -52,85 -121,148 -209,189 -60,28 -132,41 -199,48 -18,2 -66,3 -71,-21 -10,-40 -5,-91 0,-129 20,-137 86,-246 196,-327 99,-74 203,-95 323,-95 5,0 6,3 4,7 -2,3 -6,6 -11,9 -68,38 -131,69 -197,121 -35,28 -75,66 -119,115 -30,33 -56,71 -82,109 -1,1 0,2 1,2z"/>
   <path class="fil1" d="M7877 5234c-119,-96 -277,-159 -430,-177 -27,-4 -54,-7 -82,-10 -3,-1 -3,-2 -1,-4 8,-5 15,-9 23,-12 88,-36 188,-50 283,-31 194,39 333,178 383,369 2,9 -1,16 -9,19 -36,16 -72,28 -110,38 -80,22 -145,17 -227,-1 -153,-34 -299,-172 -342,-324 0,0 1,-1 1,-1 157,-7 308,26 444,101 22,12 44,24 66,36 0,0 0,0 0,0l1 -1c0,-1 0,-2 0,-2z"/>
   <path class="fil4" d="M1802 5657c0,28 -24,51 -54,51 -30,1 -56,-21 -56,-49 -1,-27 23,-50 54,-51 30,-1 55,21 56,49z"/>
   <path class="fil4" d="M3825 5659c-1,28 -26,50 -57,49 -30,0 -55,-23 -54,-51 0,-28 26,-49 56,-49 31,1 55,24 55,51z"/>
   <path class="fil4" d="M3964 5898l-75 1c-6,0 -10,-3 -10,-9l0 -5c0,-6 3,-10 9,-11 43,-8 76,-17 102,-53 27,-37 35,-88 47,-132 1,-2 2,-3 4,-3l20 4c2,0 3,1 3,4l0 160c0,2 1,3 2,3l103 -1c3,0 4,1 4,4l-1 36c0,2 -2,3 -4,3l-103 -1c-1,0 -1,1 -1,2 -1,108 -1,217 0,326 0,20 6,36 17,48 29,28 60,6 84,-13 2,-2 6,-2 8,0l15 11c4,3 4,8 2,11 -33,45 -80,66 -136,64 -65,-3 -88,-52 -89,-110 -4,-112 2,-224 2,-336 0,-2 -1,-3 -3,-3z"/>
   <path class="fil4" d="M858 6306c102,-14 154,-102 153,-199 0,-131 0,-261 0,-391 0,-2 1,-3 3,-3l43 1c2,0 4,1 4,4 4,115 -2,230 1,346 1,54 -2,115 -26,163 -58,114 -199,140 -316,120 -113,-19 -195,-101 -200,-219 -5,-121 -3,-244 -2,-366 0,-15 1,-30 1,-44 1,-3 3,-5 5,-5l101 1c1,0 2,1 2,3 1,123 1,247 -1,370 0,30 1,68 11,96 16,45 47,84 89,106 39,21 89,24 132,17z"/>
   <path class="fil4" d="M3011 5939c0,2 2,3 3,1 26,-33 64,-76 100,-90 32,-12 84,-6 103,30 14,23 7,51 -15,64 -16,10 -49,11 -65,4 -25,-11 -53,-28 -76,-7 -18,17 -49,52 -49,78 0,104 0,209 0,316 0,2 -1,4 -4,4l-89 -1c-3,0 -5,-3 -5,-5l0 -475c0,-1 1,-2 2,-2l92 0c3,0 5,2 5,4l-2 79z"/>
   <path class="fil4" d="M3493 5852c44,14 80,41 108,80 2,2 1,5 -1,7l-30 25c-3,2 -5,1 -7,-1 -7,-9 -16,-20 -25,-31 -41,-49 -93,-64 -156,-43 -10,3 -20,11 -28,22 -44,57 37,104 78,121 66,28 143,54 179,117 13,22 13,53 10,78 -7,54 -55,97 -105,111 -101,27 -187,6 -255,-75 -2,-2 -2,-5 0,-8l33 -31c2,-2 6,-2 7,0 27,33 57,72 98,84 39,11 90,4 115,-31 44,-58 -25,-103 -70,-125 -31,-14 -61,-30 -91,-45 -54,-29 -97,-90 -82,-153 23,-91 139,-129 222,-102z"/>
   <path class="fil4" d="M3819 5849l-2 486c0,2 -1,3 -3,3l-86 1c-5,0 -7,-3 -7,-7l0 -454c0,-2 0,-3 1,-4 23,-15 63,-30 91,-30 4,0 6,1 6,5z"/>
   <path class="fil4" d="M4905 6311c62,-11 96,-79 41,-124 -42,-35 -99,-55 -148,-81 -85,-45 -117,-154 -35,-222 43,-36 102,-46 156,-38 52,7 89,40 125,81 6,7 6,13 -2,18l-21 15c-7,6 -13,4 -17,-4 -28,-53 -91,-85 -154,-73 -27,5 -50,18 -57,46 -14,49 33,78 71,95 35,16 71,33 106,49 67,30 123,99 94,176 -35,90 -148,111 -231,93 -50,-10 -91,-35 -123,-76 -4,-4 -3,-9 1,-13l30 -29c3,-3 8,-2 10,2 32,53 89,97 154,85z"/>
   <path class="fil4" d="M1279 5937c0,2 2,2 3,1 55,-58 151,-122 232,-80 59,30 74,93 73,155 0,107 0,215 1,322 0,2 -1,4 -3,4l-93 -1c-2,0 -3,-1 -3,-2 1,-116 4,-235 -2,-351 -1,-28 -20,-63 -50,-68 -66,-13 -109,22 -154,60 -3,2 -5,6 -5,10l0 349c0,1 -1,3 -2,3l-90 0c-4,0 -6,-2 -6,-6l1 -472c0,-3 2,-5 5,-5l89 0c2,0 3,1 3,2l1 79z"/>
   <path class="fil4" d="M1698 6336l0 -458c0,-2 0,-3 2,-4 26,-15 64,-33 94,-29 2,0 3,1 3,3l0 488c0,1 -1,3 -3,3l-94 -1c-2,0 -2,-1 -2,-2z"/>
   <path class="fil4" d="M2452 6055c4,39 10,83 26,116 26,54 77,98 138,101 74,4 149,-39 177,-109 1,-2 2,-3 4,-3 10,-1 19,0 27,5 2,1 3,2 2,4 -1,14 -6,27 -14,41 -38,65 -94,115 -168,132 -37,8 -74,8 -111,-2 -75,-19 -133,-77 -159,-151 -58,-168 68,-372 260,-342 105,17 175,91 181,200 0,2 -1,2 -2,2l-357 1c-2,0 -4,2 -4,5zm5 -46l233 1c0,0 1,0 1,-1l0 -1c0,-68 -52,-124 -117,-124l0 0c-65,0 -118,55 -118,123l0 1c0,1 0,1 1,1z"/>
   <path class="fil4" d="M4506 6276c-1,-2 -2,-2 -5,0 -18,15 -37,29 -56,43 -37,25 -84,31 -126,27 -56,-5 -94,-51 -102,-105 -9,-66 48,-123 101,-151 57,-31 117,-52 181,-62 4,-1 8,-4 8,-9 0,-41 -1,-96 -38,-123 -27,-20 -69,-21 -100,-8 -33,13 -34,67 -37,96 -1,9 -5,17 -14,23 -23,17 -61,9 -73,-18 -31,-63 36,-111 88,-128 74,-25 198,-31 252,41 18,24 16,43 18,81 4,115 4,232 0,350 0,3 -2,5 -5,5l-86 0c-3,0 -6,-2 -6,-6l1 -55c0,0 -1,0 -1,-1zm-7 -217c-59,23 -185,69 -183,148 1,42 39,80 80,80 35,0 77,-25 106,-47 2,-2 3,-5 3,-8l1 -169c0,-5 -3,-6 -7,-4z"/>
   <path class="fil4" d="M2128 6215c1,0 1,-1 2,-1 38,-83 75,-166 112,-249 16,-35 31,-70 44,-105 1,-2 3,-4 5,-4l41 0c3,0 4,1 3,3 -68,153 -136,305 -204,457 -6,12 -16,32 -32,30 -19,-3 -41,-56 -49,-73 -43,-89 -84,-178 -125,-268 -21,-48 -46,-97 -69,-145 -1,-3 0,-4 3,-4l94 0c4,0 8,3 10,7l163 351c0,1 1,1 2,1z"/>
   <path class="fil5" d="M2457 6009c-1,0 -1,0 -1,-1l0 -1c0,-68 53,-123 118,-123l0 0c65,0 117,56 117,124l0 1c0,1 -1,1 -1,1l-233 -1z"/>
   <path class="fil5" d="M4316 6207c-2,-79 124,-125 183,-148 4,-2 7,-1 7,4l-1 169c0,3 -1,6 -3,8 -29,22 -71,47 -106,47 -41,0 -79,-38 -80,-80z"/>
   <path class="fil6" d="M3321 6924l193 0c2,0 3,1 3,2l1 71c0,2 -2,4 -4,4l-191 0c-3,0 -5,2 -5,5 0,174 -1,347 -1,520 0,32 0,63 1,94 1,21 4,37 10,48 12,26 33,42 62,48 44,10 81,-10 111,-42 3,-3 8,-4 13,-2l38 23c2,1 3,4 2,5 -62,108 -178,146 -292,124 -106,-20 -125,-134 -124,-227 2,-198 2,-396 0,-594 0,-2 -1,-3 -2,-3l-145 0c-4,0 -7,-2 -7,-7l0 -31c0,-4 3,-7 7,-7 41,-2 66,-5 76,-9 148,-53 167,-189 197,-322 0,-2 2,-3 4,-3l48 0c1,0 2,1 2,2l0 298c0,2 1,3 3,3z"/>
   <path class="fil6" d="M689 7284l0 526c0,3 -1,5 -4,5l-187 -1c-3,0 -5,-2 -5,-4l1 -1144c0,-2 1,-4 4,-4 141,1 283,-3 425,4 126,7 255,60 325,170 61,97 61,215 -3,312 -77,118 -222,155 -355,153 -41,0 -107,-7 -197,-20 -2,0 -4,1 -4,3zm141 -45c134,7 245,-78 252,-215 5,-117 -46,-208 -152,-255 -19,-8 -37,-14 -55,-16 -58,-6 -119,-8 -182,-6 -2,0 -3,2 -3,4l-1 463c0,1 1,2 2,2 46,13 92,20 139,23z"/>
   <path class="fil5" d="M1082 7024c-7,137 -118,222 -252,215 -47,-3 -93,-10 -139,-23 -1,0 -2,-1 -2,-2l1 -463c0,-2 1,-4 3,-4 63,-2 124,0 182,6 18,2 36,8 55,16 106,47 157,138 152,255z"/>
   <path class="fil6" d="M2153 7480c0,0 1,0 1,0 1,-1 1,-1 2,0 11,5 23,10 35,15 13,6 6,24 2,34 -43,108 -114,191 -215,248 -110,63 -258,69 -374,19 -189,-81 -282,-273 -256,-473 25,-193 130,-352 324,-404 129,-35 265,-5 370,77 85,67 131,171 137,279 1,3 -1,5 -5,5l-655 0c-3,0 -4,1 -4,4 2,106 23,206 89,295 37,50 85,85 146,105 18,6 40,10 65,11 31,1 53,1 67,-2 100,-20 197,-79 247,-170 7,-14 14,-27 21,-40 0,-2 1,-2 3,-3zm-342 -489c-41,-18 -106,-21 -145,-5 -90,38 -140,124 -150,218 0,2 1,4 3,4l433 0c2,0 4,-2 4,-5 -3,-11 -5,-22 -6,-33 -14,-85 -60,-145 -139,-179z"/>
   <path class="fil6" d="M4169 7694c-72,52 -134,113 -227,129 -85,16 -185,8 -244,-57 -53,-57 -71,-143 -51,-219 39,-149 232,-230 364,-266 52,-14 107,-27 157,-46 1,0 2,-1 2,-3 2,-106 0,-231 -127,-261 -69,-17 -166,4 -183,84 -1,4 -2,20 -3,48 -2,55 -17,111 -82,116 -36,2 -63,-10 -83,-39 -33,-46 -22,-109 13,-151 67,-80 161,-103 259,-119 151,-24 381,16 384,212 3,229 2,459 0,690 0,1 0,2 -2,2l-174 -1c-2,-1 -3,-2 -3,-3l2 -115c0,-1 -1,-2 -2,-1zm-345 -172c-28,77 23,171 100,194 86,25 174,-35 240,-86 3,-3 5,-7 5,-11l1 -321c0,-1 -1,-1 -2,-1 -68,21 -134,49 -197,84 -54,30 -125,80 -147,141z"/>
   <path class="fil6" d="M4732 7085c12,-11 24,-26 35,-36 70,-61 157,-118 254,-139 91,-19 185,23 246,90 22,25 35,51 39,80 2,11 6,12 13,3 56,-82 161,-148 258,-168 16,-3 32,-8 48,-9 135,-9 245,76 270,209 9,47 13,99 11,156 -4,179 -5,359 -3,540 0,2 -1,3 -4,3l-168 0c-3,0 -5,-2 -5,-5 0,-190 0,-380 0,-571 0,-69 -16,-141 -75,-181 -62,-42 -137,-33 -205,-4 -44,19 -83,48 -118,86 -8,9 -12,17 -12,26 0,215 0,431 0,647 0,1 -1,3 -3,3l-171 -1c-2,0 -4,-1 -4,-3 0,-183 0,-367 0,-550 0,-38 -2,-71 -8,-105 -1,-6 -3,-13 -7,-22 -29,-65 -80,-101 -153,-106 -21,-1 -48,6 -71,13 -64,18 -117,56 -164,102 -6,5 -7,12 -7,19 -1,215 -1,431 0,649 0,2 -2,3 -4,3l-171 0c-3,0 -5,-2 -5,-4l0 -885c0,-1 1,-2 1,-2l176 1c2,0 3,1 3,2l-1 156c0,5 1,6 5,3z"/>
   <path class="fil6" d="M6189 6926c32,-15 64,-22 99,-21 2,0 4,1 4,3l0 905c0,1 -1,1 -2,1l-174 0c-2,0 -3,-1 -3,-3l0 -852c0,-2 1,-3 3,-4 10,-4 23,-6 32,-10 14,-6 28,-13 41,-19z"/>
   <path class="fil6" d="M7893 7694c-1,0 -3,1 -4,2 -47,39 -94,78 -149,105 -66,33 -157,35 -227,20 -63,-14 -116,-74 -137,-134 -37,-108 8,-219 100,-285 59,-42 123,-75 191,-99 74,-26 148,-47 223,-64 2,-1 4,-3 4,-6 0,-48 -3,-95 -9,-140 -15,-117 -142,-147 -235,-114 -127,46 -9,238 -160,240 -50,1 -83,-37 -92,-84 -18,-103 99,-175 180,-201 60,-19 122,-29 185,-30 42,0 88,7 130,16 79,17 148,64 170,144 4,16 7,41 8,75 5,224 3,448 2,673 0,2 -1,3 -3,3l-170 -2c-3,0 -6,-2 -6,-5l1 -113c0,-1 -1,-2 -2,-1zm-209 -307c-50,31 -128,89 -139,153 -8,40 3,89 28,123 37,49 93,66 153,55 60,-12 119,-51 165,-90 2,-2 3,-4 3,-7l0 -323c0,-1 -1,-2 -2,-2 -73,25 -136,48 -208,91z"/>
   <path class="fil6" d="M2508 7082c0,4 1,4 4,1 37,-47 80,-100 126,-133 24,-17 43,-27 55,-30 20,-5 42,-13 61,-14 58,-3 120,25 142,81 6,18 7,35 2,52 -13,43 -51,63 -95,64 -42,0 -79,-19 -117,-34 -72,-29 -123,49 -159,100 -17,23 -20,38 -20,69 2,190 -1,381 3,571 0,3 -2,5 -5,5l-173 -1c0,0 -1,-1 -1,-2l0 -884c0,-2 1,-3 3,-3l174 0c1,0 3,1 2,3l-2 155z"/>
   <path class="fil6" d="M6686 7081c118,-138 379,-276 516,-72 41,60 46,125 50,195 1,24 1,68 0,133 -3,157 -2,316 -1,473 0,3 -2,4 -4,4l-170 0c-2,0 -4,-2 -4,-4 0,-196 0,-392 0,-586 0,-22 -3,-50 -9,-84 -12,-73 -76,-116 -147,-112 -23,1 -56,11 -78,21 -52,23 -100,54 -144,94 -10,8 -12,14 -12,28 -1,213 0,427 0,641 0,1 -1,2 -2,2l-171 -1c-3,-1 -5,-3 -5,-5l0 -880c0,-2 2,-4 4,-4l172 0c2,0 3,1 3,3l-2 152c0,4 2,5 4,2z"/>
   <path class="fil5" d="M1811 6991c79,34 125,94 139,179 1,11 3,22 6,33 0,3 -2,5 -4,5l-433 0c-2,0 -3,-2 -3,-4 10,-94 60,-180 150,-218 39,-16 104,-13 145,5z"/>
   <path class="fil5" d="M3824 7522c22,-61 93,-111 147,-141 63,-35 129,-63 197,-84 1,0 2,0 2,1l-1 321c0,4 -2,8 -5,11 -66,51 -154,111 -240,86 -77,-23 -128,-117 -100,-194z"/>
   <path class="fil5" d="M7545 7540c11,-64 89,-122 139,-153 72,-43 135,-66 208,-91 1,0 2,1 2,2l0 323c0,3 -1,5 -3,7 -46,39 -105,78 -165,90 -60,11 -116,-6 -153,-55 -25,-34 -36,-83 -28,-123z"/>
  </g>
 </g>
</svg>
